# xmcd
#
# Track frame offsets: 
#        150
#        19012
#        34844
#        51779
#        65858
#        82592
#        100325
#        116555
#        133980
#        149304
#        163524
#
# Disc length: 2384 seconds
#
# Revision: 1
# Processed by: cddbd v1.5.2PL0 Copyright (c) Steve Scherf et al.
# Submitted via: ExactAudioCopy v0.90b4
#
DISCID=94094e0b
DTITLE=Two Door Cinema Club - Beacon
DYEAR=2012
DGENRE=Indie
TTITLE0=Next Year
TTITLE1=Handshake
TTITLE2=Wake Up
TTITLE3=Sun
TTITLE4=Someday
TTITLE5=Sleep Alone
TTITLE6=The World Is Watching (Feat. Valentina)
TTITLE7=Settle
TTITLE8=Spring
TTITLE9=Pyramid
TTITLE10=Beacon
EXTD=
EXTT0=
EXTT1=
EXTT2=
EXTT3=
EXTT4=
EXTT5=
EXTT6=
EXTT7=
EXTT8=
EXTT9=
EXTT10=
PLAYORDER=
